<svg width="237" height="22" viewBox="0 0 237 22" fill="none" xmlns="http://www.w3.org/2000/svg">
<path d="M6.82366 10.6822L6.75766 12.4202C6.75766 12.7062 6.71366 14.3782 6.71366 14.6862C6.71366 15.3022 6.82366 17.9862 6.82366 18.5362C6.82366 19.3722 6.14166 20.5382 5.85566 20.5382C5.70166 20.5382 5.39366 20.3622 5.23966 19.9222C5.21766 19.8782 4.88766 19.4602 4.84366 19.3722C4.82166 19.3502 4.40366 18.4702 4.27166 18.3602C4.13966 18.2502 3.54566 17.8762 3.45766 17.7662C3.36966 17.6782 3.32566 17.5462 3.32566 17.4582C3.32566 17.3702 3.39166 17.3042 3.47966 17.3042C3.56766 17.3262 3.83166 17.3922 3.91966 17.4142C4.18366 17.4802 4.40366 17.5242 4.62366 17.5242C5.21766 17.5242 5.21766 17.3262 5.23966 16.7982L5.30566 15.1262V14.2902C5.06366 14.2902 3.28166 14.8402 3.23766 14.9502C3.17166 15.1262 3.01766 15.9402 2.97366 16.0942C2.92966 16.2262 2.22566 18.2722 1.08166 19.3942C0.53166 19.9442 0.46566 19.9882 0.17966 19.9882L0.15766 19.8562C0.17966 19.7242 0.57566 19.0642 0.75166 18.7122C0.79566 18.6682 1.67566 16.1822 1.80766 15.2142C1.82966 15.0822 2.13766 13.5422 2.18166 13.3882C2.24766 13.1022 2.33566 11.5182 2.33566 11.1222C2.33566 9.42818 2.35766 9.23018 2.11566 8.90018C1.89566 8.59218 1.80766 8.50418 1.80766 8.35018C1.80766 8.02018 2.26966 7.88818 2.33566 7.88818C2.40166 7.88818 3.63366 8.30618 3.87566 8.37218C4.35966 8.21818 4.82166 7.95418 5.23966 7.64618C5.34966 7.44818 5.48166 7.20618 5.76766 7.20618C6.16366 7.20618 7.46166 7.82218 7.46166 8.21818C7.46166 8.37218 7.08766 9.01018 7.04366 9.14218C6.93366 9.40618 6.82366 9.89018 6.82366 10.3522V10.6822ZM5.37166 11.4522L5.28366 11.3202C4.97566 11.3862 4.84366 11.4522 4.51366 11.6282C4.38166 11.6942 3.80966 11.7602 3.69966 11.8262C3.69966 11.9362 3.52366 13.2782 3.58966 13.7182C3.61166 13.7402 3.76566 13.7622 3.85366 13.7402C4.02966 13.6962 5.23966 13.2782 5.28366 13.2122C5.37166 13.1242 5.39366 11.9582 5.37166 11.4522ZM3.80966 10.9022C3.94166 10.8802 4.35966 10.6602 4.49166 10.5942C4.57966 10.5502 5.19566 10.4182 5.30566 10.3522C5.32766 10.1542 5.23966 9.20818 5.23966 9.03218C5.23966 8.63618 5.23966 8.59218 5.12966 8.59218C5.06366 8.59218 3.83166 8.94418 3.83166 9.38418C3.83166 9.62618 3.76566 10.6822 3.80966 10.9022ZM1.30166 4.21418L1.34566 4.12618C1.38966 4.14818 1.85166 4.30218 1.96166 4.32418C2.37966 4.43418 2.53366 4.47818 2.81966 4.47818C3.21566 4.47818 5.45966 4.12618 5.59166 4.12618C5.23966 3.07018 5.06366 2.58618 4.71166 2.21218C4.62366 2.12418 4.27166 1.66218 4.18366 1.59618C4.07366 1.50818 4.05166 1.48618 4.07366 1.33218C4.16166 1.28818 4.24966 1.24418 4.35966 1.24418C4.97566 1.24418 5.56966 1.46418 5.98766 1.72818C6.09766 1.79418 6.62566 1.94818 6.71366 2.01418C6.80166 2.10218 6.84566 2.16818 6.84566 2.27818C6.84566 2.32218 6.82366 2.54218 6.82366 2.58618C6.82366 2.91618 6.84566 3.62018 6.86766 3.92818C7.17566 3.95018 7.24166 3.95018 7.41766 3.92818L9.08966 3.79618L10.7837 3.68618C10.8497 3.68618 11.2017 3.66418 11.2897 3.64218C11.3777 3.37818 11.5757 2.08018 11.5757 1.97018C11.5757 1.86018 11.5317 1.59618 11.4657 1.44218C11.4437 1.39818 11.3557 1.20018 11.3557 1.15618C11.3557 1.11218 11.3997 1.06818 11.4217 1.02418C11.6197 0.980179 11.7957 0.936179 11.9497 0.936179C12.1257 0.936179 13.2697 1.35418 13.3357 1.42018C13.5777 1.64018 13.9077 1.99218 13.8417 2.32218C13.2037 2.74018 13.0717 2.82818 12.8297 3.48818C13.4017 3.44418 13.4677 3.42218 13.5337 3.40018C13.9077 3.18018 13.9517 3.15818 14.0397 3.15818C14.1717 3.15818 14.8317 3.07018 14.8757 3.07018C15.0737 3.07018 15.9317 3.24618 16.3057 3.44418C16.4817 3.55418 16.6137 3.68618 16.6137 4.01618C16.6137 4.14818 16.5917 4.25818 16.5697 4.39018L16.2397 4.50018L13.9517 4.39018C13.7537 4.39018 12.9617 4.41218 12.3897 4.43418C12.2797 4.63218 11.7077 5.44618 11.7077 5.62218C11.7077 5.73218 12.2357 5.82018 12.3237 5.86418C12.4557 5.95218 13.0497 6.41418 13.0497 6.67818C13.0497 6.83218 12.7197 7.47018 12.6977 7.60218C12.6537 7.86618 12.4997 9.07618 12.4557 9.31818C13.0717 9.25218 13.1377 9.20818 13.4237 9.01018C13.6217 8.87818 14.4577 8.79018 14.5237 8.79018C15.3817 8.79018 15.5357 9.16418 15.6457 9.49418C15.4477 9.64818 14.2817 9.91218 14.0617 9.95618C13.9737 9.97818 13.5777 10.0222 13.4897 10.0442C13.6437 10.3962 14.0397 10.7922 14.3917 11.1662C14.6337 11.1442 15.7777 10.8582 15.9317 10.8582C16.1077 10.8582 17.6037 10.9022 17.6037 11.5842C17.6037 12.0022 17.2517 12.0902 16.9877 12.0902C16.7897 12.0902 15.9317 12.0462 15.7557 12.0462H15.3377C15.4917 12.2002 16.2617 12.6842 16.4157 12.7942L17.8237 13.7842C17.9777 13.8942 18.8797 14.4882 18.9237 14.5542C18.9677 14.6202 19.2097 14.9502 19.2317 14.9722C19.2537 15.0162 19.2537 15.0382 19.2537 15.0602C19.2537 15.3682 18.6817 15.4122 18.4617 15.4122C18.3737 15.4122 17.0097 15.3242 16.8777 15.3022C16.3057 15.2362 15.5577 14.3782 15.4257 14.2022C14.9417 13.6522 14.2377 12.7062 13.7757 12.1342C13.6437 12.1342 13.1157 12.2002 13.0057 12.2002C12.9397 12.2002 12.5877 12.1782 12.4997 12.1782C12.3237 12.1782 11.6417 12.3102 11.4877 12.3322C11.3777 12.5082 11.3337 12.5962 11.1797 12.9042C11.5977 12.9262 13.2477 13.2342 13.2477 14.0262C13.0717 14.6422 13.0497 14.7962 13.0717 15.8522L13.1157 17.7442C13.1377 18.4042 13.0717 19.2402 12.8517 19.7022C12.6097 20.2522 12.3017 20.8682 11.7297 20.7802C11.5757 20.5602 11.2897 20.1422 11.0697 19.9442C10.8717 19.7682 10.8497 19.7462 10.7397 19.5262C10.5417 19.4162 10.4537 19.3722 10.5197 18.9982L10.6517 18.9322C10.9597 18.9542 11.3777 18.8442 11.5977 18.6242C11.6197 18.2942 11.7077 17.1942 11.7077 16.9302C11.7077 16.7982 11.6637 16.2262 11.6637 16.0942C11.6637 15.7422 11.5317 14.2682 11.3557 13.9162C11.3117 13.8282 11.0037 13.5422 10.9377 13.4762C10.6957 13.7842 10.2777 14.3342 10.1897 14.4002C9.92566 14.6202 9.48566 14.9942 9.39766 15.0822C10.1237 15.2802 10.5857 15.3902 10.6957 15.5882C11.0037 16.1162 11.1577 16.3802 11.1577 16.6002C11.1577 16.8422 11.0257 16.8862 10.6957 16.8862C10.6517 16.8862 9.08966 16.2042 8.51766 15.6982C8.36366 15.7202 8.34166 15.7422 8.05566 15.9402C7.94566 16.0062 7.26366 16.1602 7.06566 16.1382C7.04366 16.0942 7.02166 16.0062 7.02166 15.9622C7.02166 15.8302 8.18766 14.6862 8.34166 14.5322C8.67166 14.2242 8.97966 13.8502 9.26566 13.5202C9.35366 13.3882 9.77166 12.7722 9.85966 12.6622C9.59566 12.6842 9.17766 12.7942 9.11166 12.8162C8.69366 12.9482 8.42966 13.0362 8.01166 13.0362C7.74766 13.0362 7.32966 12.8602 7.06566 12.5302L7.10966 12.4422C7.17566 12.4202 8.62766 12.2002 8.75966 12.2002C8.86966 12.1342 9.46366 12.0462 9.57366 12.0242C9.70566 11.9802 10.0797 11.8922 10.1897 11.8262C10.2777 11.6502 10.6517 10.7042 10.6737 10.4622C10.4317 10.4842 9.35366 10.7042 9.13366 10.7042C8.71566 10.7042 8.60566 10.6382 8.27566 10.4402C8.23166 10.3962 7.96766 10.2862 7.85766 10.2422C7.81366 10.2202 7.81366 10.1542 7.81366 10.0662C8.09966 10.0222 9.41966 9.86818 9.68366 9.82418C10.1237 9.75818 10.4757 9.71418 10.8277 9.62618L10.8717 9.45018L11.1357 7.60218C11.1577 7.40418 11.1357 6.67818 11.1137 6.48018C11.0917 6.28218 10.9597 6.17218 10.7177 6.17218C10.6517 6.17218 10.4977 6.17218 10.4977 6.06218C10.4977 6.01818 11.0257 4.58818 11.0917 4.43418C9.94766 4.43418 9.81566 4.45618 8.60566 4.63218C8.34166 4.67618 7.17566 4.76418 6.93366 4.80818C6.95566 5.38018 6.95566 5.55618 6.86766 5.73218C6.82366 5.82018 6.66966 6.08418 6.55966 6.08418C6.38366 6.08418 6.29566 5.86418 5.92166 5.05018C5.67966 5.07218 4.49166 5.31418 4.20566 5.38018C4.00766 5.44618 2.95166 5.82018 2.88566 5.82018C2.55566 5.82018 1.87366 4.96218 1.30166 4.21418ZM12.4557 10.2202L12.2577 10.2642C12.1917 10.4842 11.8177 11.3862 11.7517 11.5622C13.0717 11.4082 13.2037 11.3862 13.3137 11.3642C13.1597 11.2102 12.5877 10.3742 12.4557 10.2202ZM11.0037 17.4802C10.7617 17.8322 9.04566 19.6582 9.00166 19.7022C8.95766 19.7022 8.93566 19.7242 8.91366 19.7242C8.75966 19.7242 8.31966 19.1082 8.20966 19.0202C8.09966 18.9102 8.09966 18.5142 8.09966 18.3382C8.09966 18.1622 8.20966 18.0962 8.31966 18.0962C8.34166 18.0962 8.64966 18.1182 8.69366 18.1182C8.91366 18.0522 10.4537 17.5462 10.7397 17.4142C10.7837 17.3922 10.8497 17.3922 10.8717 17.3922C10.9157 17.3922 10.9597 17.4362 11.0037 17.4802ZM8.73766 6.92018C8.89166 6.92018 10.5197 7.77818 10.5197 8.46018C10.5197 9.03218 10.5197 9.42818 10.0357 9.42818C9.79366 9.42818 9.74966 9.36218 9.35366 8.76818C8.84766 7.99818 8.51766 7.47018 8.51766 7.09618C8.51766 6.96418 8.62766 6.92018 8.73766 6.92018ZM13.0057 8.21818C13.5777 7.60218 13.9297 7.22818 14.0397 6.98618C14.0837 6.89818 14.1717 6.43618 14.1937 6.34818C14.3037 6.32618 14.3697 6.30418 14.4357 6.30418C14.6337 6.30418 15.6457 6.78818 15.7557 6.83218C15.9757 6.98618 15.9977 7.29418 15.9977 7.47018C15.9977 7.75618 15.9097 7.77818 15.0077 7.95418C14.6117 8.04218 14.5457 8.08618 13.9517 8.37218C13.8857 8.39418 13.4677 8.59218 13.1597 8.59218C13.0277 8.59218 12.9177 8.54818 12.9177 8.46018C12.9177 8.41618 12.9617 8.30618 13.0057 8.21818ZM15.7337 19.2182L14.3477 18.2722C14.2817 18.2502 13.7097 17.7222 13.6217 17.6342C13.4237 17.4582 13.4017 17.4362 13.4237 17.3042C13.5997 17.2602 13.6877 17.2602 13.7977 17.2602C14.0177 17.2602 14.8097 17.3922 15.1177 17.5462C15.1837 17.5682 15.5797 17.6122 15.6457 17.6342C15.7997 17.7002 16.2837 17.9862 16.3717 18.2722C16.4597 18.5362 16.5697 18.8442 16.5697 19.0862C16.5697 19.3282 16.3277 19.4602 16.1957 19.4602C16.0857 19.4602 16.0417 19.4382 15.7337 19.2182ZM14.3477 15.0162L14.1937 14.8402C14.2817 14.6862 14.7437 14.5542 14.9637 14.5542C15.0737 14.5542 15.5357 14.7302 15.6457 14.7302C15.8657 14.7742 15.9537 14.9282 16.0197 15.0382L16.0857 15.3902C15.9757 15.6542 15.9097 15.7422 15.5577 15.7862C15.3377 15.8302 14.5017 16.2042 14.3037 16.2702C14.2157 16.2922 13.7097 16.3802 13.5997 16.4022C13.5777 16.3802 13.5337 16.2922 13.5337 16.2262C13.5337 16.2042 14.2597 15.2362 14.3477 15.0162ZM32.3877 15.3022L32.3657 15.7862L32.4757 15.8082L34.3897 15.7422C34.4777 15.7202 35.1817 15.6762 35.3137 15.6762C35.6437 15.6762 36.0177 15.6762 36.2157 15.6102C36.3257 15.3242 36.7437 14.0262 36.8097 13.7622L37.9757 9.47218C38.0417 9.18618 38.3277 7.93218 38.3717 7.73418C38.6357 6.50218 38.6357 6.28218 38.6137 5.77618C38.3057 5.73218 38.0417 5.71018 37.6677 5.71018C37.4477 5.71018 36.4577 5.79818 36.2597 5.79818H35.8637L33.3997 6.06218C33.2897 6.06218 32.7617 6.08418 32.6517 6.10618C32.4757 6.12818 32.3217 6.17218 32.1237 6.23818C32.5197 6.54618 33.0917 7.00818 33.0917 7.25018C33.0917 7.29418 32.8277 8.19618 32.7837 8.30618C32.7617 8.61418 32.7397 9.40618 32.7397 9.58218C32.8277 9.60418 32.8937 9.62618 32.9597 9.62618C33.2237 9.62618 33.8177 9.45018 34.0597 9.34018C34.2137 9.27418 34.3237 9.16418 34.4557 9.16418C35.1157 9.16418 37.2277 9.16418 37.2277 9.97818C37.2277 10.3522 36.5017 10.4622 35.8197 10.5502C35.5557 10.5942 32.9157 10.8582 32.7617 11.0122C32.6517 11.1222 32.5637 12.7062 32.5637 12.9922C32.5417 13.3442 32.3217 14.9722 32.3877 15.3022ZM30.0337 6.50218L27.6137 6.87618C27.3717 6.92018 26.0957 7.14018 25.7657 7.25018C25.7437 7.36018 26.1397 10.3302 26.2277 10.5722C26.3377 10.5722 26.8657 10.6382 26.9757 10.6382C27.7237 10.6382 28.4277 10.4842 30.1437 10.1762C30.3857 10.1322 30.4957 10.1102 30.4957 9.91218C30.4957 8.98818 30.4737 8.28418 30.4077 7.62418C30.3197 6.70018 30.1437 6.48018 30.0337 6.50218ZM27.1957 16.2262L30.3637 15.8962H30.5177C30.5177 15.8302 30.5397 15.6982 30.5397 15.6322C30.5397 15.5442 30.4957 15.2802 30.4957 15.2142C30.4957 15.1042 30.5617 14.1582 30.5617 14.0042C30.5617 13.8062 30.4957 11.5402 30.4517 11.2762C30.3857 11.2322 30.3637 11.2102 30.3197 11.2102C30.2757 11.2102 30.2537 11.2102 30.0117 11.2762C29.6597 11.3642 27.6137 11.6282 27.3057 11.6282C27.1517 11.6282 26.5137 11.4742 26.3817 11.4522C26.3157 11.6062 27.1737 16.1382 27.1957 16.2262ZM27.7017 5.79818L30.4957 5.38018L30.7597 5.33618L32.6957 5.13818C33.0037 5.11618 33.6197 5.05018 33.9277 5.02818C34.0597 5.02818 34.5657 4.94018 34.6537 4.91818L37.3377 4.63218C37.5797 4.61018 38.0857 4.50018 38.3277 4.43418C38.4817 4.39018 39.0537 4.03818 39.1637 3.97218C39.4497 4.06018 39.6917 4.32418 40.0877 4.78618C40.2637 4.98418 41.0557 5.82018 41.2097 5.99618C41.3197 6.12818 41.8697 6.81018 41.8697 6.89818C41.8697 7.05218 41.8037 7.11818 41.1877 7.53618C41.0117 7.66818 40.7697 8.39418 40.7037 8.59218C40.6377 8.85618 40.1537 9.95618 40.0657 10.1982L39.2737 12.6182L38.5257 14.7522C37.9317 16.4242 37.7997 16.8862 37.0957 17.2822C36.8537 17.2162 35.6657 16.8422 35.6217 16.8422C35.4237 16.8422 35.0937 16.7762 34.8737 16.7322C34.5217 16.6662 33.6417 16.6662 33.2457 16.6662C32.0137 16.6662 28.8017 16.9522 28.5157 16.9962C27.6357 17.1722 27.5257 17.1722 27.2397 17.4582C26.9977 18.0742 26.4917 18.3602 26.4037 18.3602C26.1397 18.3602 25.4137 17.1502 25.3257 16.3142C25.2157 15.3682 24.8197 13.0142 24.6437 11.9802L24.2917 9.82418C24.2477 9.56018 24.1817 9.16418 24.1157 8.90018L23.6757 7.14018C23.5437 6.61218 23.2137 5.99618 23.0597 5.82018C22.7517 5.44618 22.5097 5.02818 22.5097 4.91818C22.5097 4.74218 22.7517 4.67618 22.9057 4.67618C23.1257 4.67618 23.9617 5.22618 24.1377 5.31418C24.6657 5.55618 24.8197 5.68818 25.0397 5.97418C25.1937 5.99618 25.3037 6.01818 25.4577 6.01818C25.6997 6.01818 27.3937 5.84218 27.7017 5.79818ZM63.5178 3.24618L65.3878 3.09218C65.5418 3.07018 66.2238 3.02618 66.3778 3.02618C66.4658 3.00418 66.9058 2.93818 66.9938 2.93818C68.0058 2.93818 68.2038 2.69618 68.4678 2.34418C68.7978 2.32218 69.2818 2.74018 69.5238 2.98218C69.6338 3.09218 70.0958 3.57618 70.2058 3.66418C70.3378 3.77418 71.0418 4.34618 71.0418 4.69818C71.0418 4.78618 71.0418 4.83018 70.8878 5.09418C70.6898 5.13818 69.7878 5.16018 69.6118 5.20418C69.4138 5.24818 68.6218 5.71018 68.4458 5.77618C68.2258 5.86418 67.9178 5.97418 67.6538 5.97418C67.4338 5.97418 67.2138 5.86418 67.2138 5.68818C67.2138 5.55618 67.5878 5.07218 67.7418 4.87418C67.7858 4.74218 67.9838 4.14818 68.0058 3.97218C67.8518 3.90618 66.8398 3.77418 66.7518 3.77418C66.5318 3.77418 65.3438 3.77418 64.9038 3.81818C64.6178 3.84018 64.5958 3.84018 64.5298 3.92818L64.8158 4.23618L65.1458 4.52218L65.4098 4.89618C65.4318 4.94018 65.4978 5.07218 65.4978 5.13818C65.4978 5.18218 65.4538 5.22618 65.2558 5.62218C65.6078 5.64418 66.8618 5.77618 66.8618 6.30418C66.8618 6.50218 66.6638 6.67818 66.4878 6.67818C65.8278 6.67818 65.0358 6.70018 64.5518 6.72218C64.1778 7.40418 64.1118 7.53618 64.0458 7.71218L64.1998 7.75618C64.3538 7.73418 64.5958 7.71218 64.6618 7.71218C64.7498 7.71218 65.4758 8.08618 65.6078 8.15218C66.1798 8.48218 66.5098 8.68018 66.5098 8.90018C66.5098 8.98818 66.2898 9.38418 66.2678 9.47218C66.2238 9.58218 66.1138 10.0222 66.0478 10.2422L66.0258 11.5622C66.0258 11.6282 66.0918 12.9262 66.0918 13.1682C66.0918 14.5762 65.4758 15.8302 64.9698 15.8302C64.7058 15.8302 64.4418 15.4342 64.3318 15.2142C64.2878 15.1262 64.1998 14.6422 64.1558 14.5322L63.3858 14.4442C63.6938 14.9502 63.7378 14.9942 63.7378 15.1042C63.7378 15.1482 63.4958 15.7422 63.4738 15.8082C63.4078 15.9622 63.1878 17.5682 63.1878 18.0082C63.1878 18.7562 63.6718 18.9982 64.1118 19.1742C64.6398 19.3722 65.8058 19.5702 66.0258 19.5482L67.8738 19.3722C68.2478 19.3282 68.7978 19.0862 69.0618 18.7562C69.1058 18.5142 69.1498 18.2722 69.1498 18.0742C69.1498 17.9642 69.1058 17.5242 69.1058 17.4142C69.0838 17.2382 68.9738 16.5562 68.9738 16.4462C68.9738 16.3582 68.9958 16.2262 69.0178 16.1602C69.4798 16.1162 69.8758 16.9962 70.1838 17.6782C70.6458 18.6902 70.6678 18.7342 71.3278 19.0642C71.4378 19.2842 71.4818 19.3282 71.6138 19.4602C71.6578 19.7242 71.6358 19.8122 71.3498 20.1422C71.2398 20.1642 70.8878 20.4062 70.7998 20.4282C70.7118 20.4282 69.2818 20.7802 69.2598 20.7802L67.4118 20.8462C66.3998 20.8902 63.6938 20.4502 62.9018 19.8122C62.1978 19.2182 62.0218 17.8542 62.0218 17.0182C62.0218 15.3902 62.0218 15.2142 61.8458 14.8622C61.7358 14.6862 61.6258 14.5542 61.4938 14.5542C61.3618 14.5542 60.4158 14.7522 60.0858 14.9062C60.2178 15.1482 61.1198 16.0942 61.1198 16.3582C61.1198 16.7102 60.9878 16.7982 60.6358 16.9742C60.5478 17.0402 58.8318 18.8882 58.4358 19.1522C57.5558 19.7682 57.2478 19.9662 55.9058 20.4062C55.4658 20.5382 54.9378 20.7142 54.3218 20.7142C54.1898 20.7142 54.1018 20.6042 54.1018 20.5162C54.1018 20.3182 55.2898 19.8782 55.4878 19.7242C56.2578 19.1962 57.3358 18.4482 57.9738 17.7002C58.2598 17.3702 59.0298 16.3142 59.0298 15.9842C59.0298 15.8302 59.0298 15.5882 58.8538 15.5882C58.7658 15.5882 58.7218 15.5882 58.4138 15.7422C58.0838 15.4122 57.6218 14.5982 57.6218 13.9162C57.6218 13.8282 57.7978 13.4102 57.7978 13.3002C57.8858 12.6842 57.8858 12.5962 57.8858 12.2002C57.8858 11.9362 57.8198 10.8142 57.8198 10.5722C57.8198 9.86818 57.7318 9.49418 57.5558 9.07618C57.5118 8.94418 57.3138 8.63618 57.3138 8.54818C57.3138 8.46018 57.4678 8.37218 57.5778 8.37218C57.6438 8.37218 58.2378 8.76818 58.5678 9.03218C58.8978 8.94418 59.0738 8.90018 59.4698 8.72418C59.3598 8.37218 59.0518 7.53618 58.9418 7.36018C58.7878 7.38218 58.1938 7.60218 58.0618 7.60218C57.6658 7.60218 57.5338 7.53618 57.1818 7.31618C57.0938 7.25018 56.5878 7.07418 56.5438 6.98618C56.4998 6.94218 56.4998 6.89818 56.4998 6.87618C56.4998 6.70018 56.6538 6.67818 56.7198 6.67818C56.8298 6.67818 57.3138 6.74418 57.4238 6.74418C57.7538 6.74418 58.2598 6.63418 58.5898 6.50218C58.4798 6.01818 58.0838 5.20418 57.8858 5.05018C57.7978 5.00618 57.5338 4.94018 57.4458 4.94018C57.3578 4.94018 56.9618 5.02818 56.8738 5.02818C56.8078 5.02818 56.4778 4.91818 56.4118 4.91818C56.0598 4.91818 56.0378 5.02818 55.9278 5.86418C55.7078 7.38218 54.7398 8.57018 54.4538 8.57018C54.1458 8.57018 53.9258 8.28418 53.9258 8.06418C53.9038 7.93218 53.7498 7.27218 53.7498 7.14018C53.7498 6.34818 53.7498 6.26018 54.0138 5.95218C54.5418 5.35818 54.6078 5.29218 54.7398 5.05018C54.8718 4.89618 55.2018 4.30218 55.2898 4.01618C55.3778 3.79618 55.3778 3.75218 55.4878 3.64218C55.5538 3.55418 55.6418 3.42218 55.6638 3.40018C55.9718 3.31218 55.9938 3.37818 56.1478 4.17018C56.2358 4.19218 56.3018 4.19218 56.3678 4.19218C56.4558 4.19218 56.7638 4.12618 56.8298 4.12618C57.0058 4.12618 57.7098 3.95018 57.8638 3.95018C57.9958 3.95018 59.0078 3.81818 59.2278 3.77418C59.3598 3.75218 60.7678 3.64218 61.0538 3.57618C61.0978 3.31218 61.1638 3.09218 61.1638 2.82818C61.1638 2.38818 60.9878 1.99218 60.7238 1.68418C60.6138 1.55218 59.9098 1.04618 59.8218 0.892179C59.9318 0.694179 60.0198 0.562179 60.4818 0.562179C61.4058 0.562179 61.9338 0.606179 63.1658 1.33218C63.4518 1.50818 63.7378 1.68418 63.7378 2.08018C63.7378 2.19018 63.3638 2.56418 63.3198 2.65218C63.1658 2.87218 63.0558 3.04818 63.0558 3.20218C63.0558 3.24618 63.0998 3.24618 63.1438 3.24618H63.5178ZM60.8338 6.17218L62.9018 5.93018C63.1658 5.90818 63.2318 5.88618 63.2318 5.16018C63.2318 4.76418 63.0118 4.06018 62.7918 4.06018C62.7038 4.06018 62.3518 4.10418 62.0878 4.10418C61.8898 4.10418 59.6018 4.45618 59.3818 4.45618C59.1398 4.45618 59.0078 4.45618 58.8538 4.52218C59.2498 4.65418 60.3938 5.53418 60.4818 5.79818C60.4818 5.86418 60.5258 6.17218 60.5918 6.17218C60.6358 6.19418 60.7678 6.17218 60.8338 6.17218ZM59.1398 13.9382L59.2278 14.0702C59.4918 14.1142 59.5798 14.1142 59.9758 14.0262C60.0638 14.0042 60.8998 13.9162 60.9878 13.9162L63.1658 13.7402C63.2098 13.7402 64.1998 13.6302 64.2438 13.5862C64.2878 13.5422 64.2878 13.4102 64.2878 13.3002C64.2878 13.1022 64.3318 12.1562 64.3318 12.0022C64.3318 11.9362 64.2438 11.2322 64.2438 11.1442C64.2438 8.68018 63.8698 8.63618 63.1218 8.63618C63.0118 8.63618 62.6158 8.63618 62.0218 8.79018L60.3058 9.25218L59.1618 9.58218C59.1398 9.80218 59.1398 9.86818 59.2058 10.3522C59.3598 10.3522 60.9878 10.0882 61.4718 9.89018C61.6478 9.80218 62.2638 9.60418 62.5938 9.60418C63.0338 9.60418 63.4298 9.67018 63.6498 10.0442C63.6058 10.1102 63.3198 10.4402 63.2758 10.4622C63.0778 10.5062 61.8238 10.7482 61.5818 10.7702C60.7458 10.8362 60.7238 10.8362 60.0638 11.0342C59.9318 11.0782 59.2498 11.1002 59.2058 11.2322C59.1838 11.2762 59.1178 11.5622 59.1178 11.9362V12.3322C59.5358 12.2882 61.1418 11.9582 61.5598 11.8482C61.6698 11.8042 62.1758 11.5182 62.3078 11.5182C63.1658 11.5182 63.7158 11.5182 63.7158 11.9802C63.7158 12.2662 63.4518 12.3102 63.0558 12.3762C63.0118 12.3762 62.8358 12.4642 62.7918 12.4642C62.4178 12.5082 60.8558 12.6622 60.5478 12.7282C60.4378 12.7502 59.2058 13.0362 59.1398 13.0582C59.1178 13.4762 59.1178 13.5642 59.1398 13.9382ZM62.6818 8.04218C62.7478 7.82218 62.9018 6.98618 62.9458 6.78818C62.8798 6.81018 62.7038 6.83218 62.6378 6.83218C61.8898 6.83218 60.6138 6.96418 60.5918 7.07418V7.14018C60.5918 7.20618 60.6358 8.41618 60.7458 8.41618C60.9878 8.41618 62.3738 8.10818 62.6818 8.04218ZM83.3178 7.20618L83.3398 6.39218L83.2518 4.76418C83.1638 4.14818 83.0318 3.22418 82.2398 2.56418C82.0198 2.38818 81.9978 2.27818 81.9978 2.16818C81.9978 1.83818 82.2618 1.81618 83.0538 1.81618C83.6038 1.81618 84.0878 2.08018 84.7258 2.43218C85.7598 3.00418 85.8698 3.07018 85.8698 3.37818C85.8698 3.46618 85.8478 3.51018 85.6498 3.84018C85.3198 4.34618 85.1878 6.15018 85.1878 6.70018C86.6398 6.28218 86.9918 6.01818 87.4318 5.33618C87.4758 5.31418 87.6078 5.29218 87.6738 5.29218C87.9378 5.29218 88.1138 5.44618 88.4218 5.71018C88.4878 5.75418 90.0058 6.70018 90.2258 6.96418C90.5338 7.33818 90.5778 7.40418 90.5778 7.55818C90.5778 7.82218 90.3798 8.06418 90.2918 8.08618C89.4118 8.28418 88.9278 8.39418 88.2898 8.94418C88.2018 9.03218 87.8058 9.40618 87.7398 9.47218L86.2218 10.6382C85.4078 11.2542 81.6018 13.6522 81.2498 13.8502C81.2058 13.8942 81.1618 13.9162 81.1618 13.9602C81.1618 14.0702 81.2938 14.0922 81.3378 14.1142C82.0858 14.2902 84.7478 15.1922 85.4738 15.4782C86.4638 15.8962 86.5738 15.9182 87.6958 16.2922L89.4778 16.8862C90.2478 17.1502 91.0178 17.3482 91.8098 17.5242C91.8978 17.5682 92.4258 17.6342 92.5358 17.6562C92.9098 17.7662 94.8238 18.2282 94.9998 18.3162C95.0658 18.3602 95.1318 18.4042 95.2198 18.4482L95.2418 18.8442C95.0658 18.9542 92.8438 19.7242 91.8098 19.7242C91.5458 19.5922 91.4798 19.5482 90.9298 19.4162C89.8298 19.1302 86.3978 17.5022 86.0898 17.3262C84.9238 16.6442 83.3838 15.9402 83.1418 15.8302C81.6678 15.2142 81.0298 14.9062 79.8198 14.9062C79.4678 14.9722 78.8958 15.0602 78.4778 15.1482C78.2358 15.2362 77.6198 15.5002 77.3338 15.6982C76.6078 16.2042 76.5198 16.2482 76.3438 16.2482C75.8378 16.2482 75.8158 15.6762 75.8158 15.6322C75.8158 15.4122 76.0358 13.7842 76.4758 13.7842C76.4978 13.7842 76.5198 13.7842 76.5418 13.8062C77.0918 14.0922 77.1578 14.1362 77.3778 14.1362C78.6758 14.1362 79.2698 13.8062 80.2378 13.3222C80.5898 13.1462 84.3298 10.1102 86.2438 7.36018C85.6938 7.38218 85.6718 7.40418 85.0118 7.62418C84.8578 7.66818 84.1758 7.82218 84.0218 7.86618C83.4498 8.06418 82.4378 8.39418 82.3058 8.41618C82.2398 8.41618 82.1518 8.43818 82.1078 8.46018L80.2158 9.27418C80.1498 9.29618 79.9298 9.47218 79.8858 9.49418C79.7978 9.53818 79.7098 9.56018 79.6438 9.56018C79.2918 9.56018 77.2898 8.46018 77.2678 8.43818C77.1578 8.32818 77.1798 8.10818 77.2018 8.04218C77.2238 8.02018 77.3778 7.99818 77.4218 7.99818C77.4878 7.99818 78.4558 8.08618 78.6538 8.08618C79.3358 8.08618 81.8658 7.53618 82.5258 7.38218L83.3178 7.20618ZM155.258 4.06018L157.15 3.88418C157.59 3.84018 158.118 3.79618 158.47 3.64218C158.492 3.62018 158.91 3.29018 158.976 3.22418C159.02 3.22418 159.108 3.20218 159.152 3.20218C159.218 3.20218 159.328 3.22418 159.35 3.24618C159.482 3.51018 160.494 4.34618 160.824 4.61018C161.022 4.78618 161.594 5.33618 161.594 5.62218C161.594 5.90818 161.286 6.21618 161.022 6.21618C160.934 6.21618 160.582 6.15018 160.494 6.15018C160.01 6.15018 159.79 6.26018 158.778 6.70018C158.646 6.78818 157.898 7.00818 157.7 7.00818C157.634 7.00818 157.502 6.98618 157.458 6.98618C157.326 7.00818 157.128 6.98618 157.128 6.78818C157.128 6.63418 158.162 5.22618 158.162 5.13818C158.162 4.76418 157.216 4.56618 157.15 4.56618C156.226 4.56618 155.698 4.58818 155.016 4.61018C154.752 4.63218 153.3 4.87418 153.014 4.89618C152.772 4.89618 150.638 5.02818 150.374 5.07218C149.868 5.13818 147.822 5.51218 147.052 5.77618C146.986 5.82018 146.81 5.86418 146.656 5.86418C146.48 5.86418 145.688 5.66618 145.512 5.66618C145.468 5.95218 145.314 7.18418 145.248 7.42618C145.05 8.15218 144.016 9.95618 143.576 9.95618C143.07 9.95618 142.828 9.47218 142.828 9.07618C142.828 8.87818 142.784 8.02018 142.784 7.84418C142.784 7.42618 142.828 7.33818 142.982 7.14018C143.51 6.92018 143.95 5.62218 144.016 5.40218C144.324 4.41218 144.346 4.28018 144.544 4.12618C144.742 4.12618 144.786 4.17018 145.072 4.61018C145.358 5.07218 145.38 5.11618 145.556 5.11618C145.71 5.11618 146.414 5.00618 146.568 5.00618H147.074C147.14 5.00618 147.712 4.87418 147.822 4.87418C148.086 4.87418 149.274 4.63218 149.516 4.58818C149.802 4.56618 150.682 4.47818 150.946 4.28018C151.012 3.77418 150.924 2.96018 150.704 2.36618C150.594 2.10218 149.604 1.11218 149.604 1.04618C149.604 0.936179 149.648 0.914179 149.934 0.716179C151.232 0.606179 151.738 0.870179 152.442 1.22218C152.684 1.33218 153.102 1.55218 153.278 1.66218C153.322 1.72818 153.564 2.05818 153.564 2.21218C153.564 2.27818 153.124 3.35618 153.102 3.37818C153.08 3.64218 153.058 3.95018 153.058 3.99418C153.058 4.10418 153.08 4.17018 153.278 4.17018C153.476 4.17018 154.972 4.08218 155.258 4.06018ZM158.118 12.4202L157.238 12.3982C157.04 12.3982 156.05 12.1122 155.852 12.1122C155.698 12.0682 154.884 12.0022 154.664 12.0022C154.51 12.0022 153.564 12.0022 153.19 12.2002C153.124 12.2442 153.124 12.4202 153.102 12.5522L153.058 14.3122L153.014 16.5342C153.014 16.8202 153.102 18.0742 153.102 18.3382C153.102 19.5922 152.266 20.7362 152.112 20.9562C151.914 21.2202 151.716 21.3742 151.386 21.3302C151.298 21.2422 151.122 21.1542 150.88 21.0002C150.836 20.8902 150.286 19.7022 150.088 19.5262C149.626 19.1082 149.164 18.6682 148.724 18.2502C148.658 18.1842 148.372 17.9862 148.328 17.9202C148.306 17.8762 148.284 17.8322 148.284 17.7882C148.57 17.8322 148.636 17.8542 149.23 18.0742C149.67 18.2502 150.242 18.3162 150.352 18.3162C150.462 18.3162 150.572 18.2942 150.792 18.2502C151.078 17.8542 151.254 16.8202 151.254 16.6222L151.342 14.9062C151.386 14.2462 151.298 12.7062 151.276 12.3762C150.44 12.4862 148.966 12.8162 148.262 13.1022C148.13 13.1462 146.788 13.5642 146.656 13.6302C146.414 13.7622 146.392 13.7842 146.216 13.7842C145.688 13.7842 144.962 13.2562 144.72 13.0582C144.632 12.9922 144.214 12.7722 144.148 12.7062C144.038 12.5962 144.06 12.4642 144.082 12.3102C144.126 12.2882 144.214 12.2442 144.28 12.2442C144.302 12.2442 144.918 12.3322 145.05 12.3322C146.414 12.3322 147.008 12.2002 148.614 11.8262C149.01 11.7382 150.836 11.4302 151.21 11.3202C151.232 10.9682 151.034 9.93418 150.99 9.84618C150.594 9.14218 150.044 8.74618 149.868 8.74618C148.856 8.74618 148.768 8.74618 148.306 8.61418C148.13 8.57018 147.316 8.32818 147.316 8.10818C147.316 8.06418 147.36 8.02018 147.36 7.99818C147.558 7.93218 148.108 7.88818 148.218 7.88818C148.878 7.88818 148.966 7.91018 149.186 7.86618C149.956 7.75618 151.672 7.44818 152.31 7.27218C152.464 7.22818 153.146 7.07418 153.278 7.00818C153.674 6.83218 154.378 6.59018 154.532 6.59018C154.906 6.59018 155.632 6.81018 155.852 6.96418C156.028 7.09618 156.05 7.22818 156.006 7.44818C155.456 7.75618 154.576 8.04218 154.07 8.10818C153.85 8.13018 152.992 8.24018 152.816 8.28418C152.882 8.54818 152.926 8.63618 153.168 8.90018C153.234 8.96618 153.3 9.05418 153.3 9.12018C153.3 9.16418 153.212 9.38418 153.212 9.42818C153.19 9.53818 153.124 9.86818 153.102 9.95618C153.102 10.0662 153.124 10.9682 153.146 11.0562C153.366 11.0782 154.4 10.9682 154.598 10.9462C154.95 10.9242 156.512 10.6162 156.776 10.6162C156.864 10.6162 157.986 10.8362 158.074 10.8802C158.162 10.9462 158.888 11.3862 158.932 11.5182C158.954 11.5842 158.998 11.7602 158.998 11.8482C158.998 12.2002 158.404 12.4202 158.118 12.4202ZM174.794 15.3022L174.772 15.7862L174.882 15.8082L176.796 15.7422C176.884 15.7202 177.588 15.6762 177.72 15.6762C178.05 15.6762 178.424 15.6762 178.622 15.6102C178.732 15.3242 179.15 14.0262 179.216 13.7622L180.382 9.47218C180.448 9.18618 180.734 7.93218 180.778 7.73418C181.042 6.50218 181.042 6.28218 181.02 5.77618C180.712 5.73218 180.448 5.71018 180.074 5.71018C179.854 5.71018 178.864 5.79818 178.666 5.79818H178.27L175.806 6.06218C175.696 6.06218 175.168 6.08418 175.058 6.10618C174.882 6.12818 174.728 6.17218 174.53 6.23818C174.926 6.54618 175.498 7.00818 175.498 7.25018C175.498 7.29418 175.234 8.19618 175.19 8.30618C175.168 8.61418 175.146 9.40618 175.146 9.58218C175.234 9.60418 175.3 9.62618 175.366 9.62618C175.63 9.62618 176.224 9.45018 176.466 9.34018C176.62 9.27418 176.73 9.16418 176.862 9.16418C177.522 9.16418 179.634 9.16418 179.634 9.97818C179.634 10.3522 178.908 10.4622 178.226 10.5502C177.962 10.5942 175.322 10.8582 175.168 11.0122C175.058 11.1222 174.97 12.7062 174.97 12.9922C174.948 13.3442 174.728 14.9722 174.794 15.3022ZM172.44 6.50218L170.02 6.87618C169.778 6.92018 168.502 7.14018 168.172 7.25018C168.15 7.36018 168.546 10.3302 168.634 10.5722C168.744 10.5722 169.272 10.6382 169.382 10.6382C170.13 10.6382 170.834 10.4842 172.55 10.1762C172.792 10.1322 172.902 10.1102 172.902 9.91218C172.902 8.98818 172.88 8.28418 172.814 7.62418C172.726 6.70018 172.55 6.48018 172.44 6.50218ZM169.602 16.2262L172.77 15.8962H172.924C172.924 15.8302 172.946 15.6982 172.946 15.6322C172.946 15.5442 172.902 15.2802 172.902 15.2142C172.902 15.1042 172.968 14.1582 172.968 14.0042C172.968 13.8062 172.902 11.5402 172.858 11.2762C172.792 11.2322 172.77 11.2102 172.726 11.2102C172.682 11.2102 172.66 11.2102 172.418 11.2762C172.066 11.3642 170.02 11.6282 169.712 11.6282C169.558 11.6282 168.92 11.4742 168.788 11.4522C168.722 11.6062 169.58 16.1382 169.602 16.2262ZM170.108 5.79818L172.902 5.38018L173.166 5.33618L175.102 5.13818C175.41 5.11618 176.026 5.05018 176.334 5.02818C176.466 5.02818 176.972 4.94018 177.06 4.91818L179.744 4.63218C179.986 4.61018 180.492 4.50018 180.734 4.43418C180.888 4.39018 181.46 4.03818 181.57 3.97218C181.856 4.06018 182.098 4.32418 182.494 4.78618C182.67 4.98418 183.462 5.82018 183.616 5.99618C183.726 6.12818 184.276 6.81018 184.276 6.89818C184.276 7.05218 184.21 7.11818 183.594 7.53618C183.418 7.66818 183.176 8.39418 183.11 8.59218C183.044 8.85618 182.56 9.95618 182.472 10.1982L181.68 12.6182L180.932 14.7522C180.338 16.4242 180.206 16.8862 179.502 17.2822C179.26 17.2162 178.072 16.8422 178.028 16.8422C177.83 16.8422 177.5 16.7762 177.28 16.7322C176.928 16.6662 176.048 16.6662 175.652 16.6662C174.42 16.6662 171.208 16.9522 170.922 16.9962C170.042 17.1722 169.932 17.1722 169.646 17.4582C169.404 18.0742 168.898 18.3602 168.81 18.3602C168.546 18.3602 167.82 17.1502 167.732 16.3142C167.622 15.3682 167.226 13.0142 167.05 11.9802L166.698 9.82418C166.654 9.56018 166.588 9.16418 166.522 8.90018L166.082 7.14018C165.95 6.61218 165.62 5.99618 165.466 5.82018C165.158 5.44618 164.916 5.02818 164.916 4.91818C164.916 4.74218 165.158 4.67618 165.312 4.67618C165.532 4.67618 166.368 5.22618 166.544 5.31418C167.072 5.55618 167.226 5.68818 167.446 5.97418C167.6 5.99618 167.71 6.01818 167.864 6.01818C168.106 6.01818 169.8 5.84218 170.108 5.79818ZM188.984 3.86218L189.006 3.70818C189.16 3.59818 189.27 3.53218 189.71 3.53218C189.908 3.53218 190.524 3.59818 190.678 3.62018C190.92 3.73018 191.206 4.06018 191.426 4.19218C191.514 4.25818 191.932 4.47818 191.998 4.52218C192.284 4.72018 192.306 4.74218 192.504 4.80818C192.614 4.98418 192.636 5.05018 192.68 5.22618C192.416 5.62218 192.108 6.32618 192.108 6.85418C192.108 6.96418 192.042 7.42618 192.02 7.53618C192.02 7.84418 191.976 9.42818 191.954 9.73618C191.954 9.82418 191.844 10.2642 191.844 10.3302C191.8 10.5282 191.8 11.4522 191.778 11.6282C191.558 13.1242 191.25 14.5982 190.964 15.0602C190.854 16.0062 188.852 19.2182 188.06 19.2182C188.016 19.2182 187.994 19.1742 187.95 19.1082C188.038 18.8882 188.72 17.1282 188.786 16.9082C188.852 16.6882 189.182 15.6982 189.226 15.4782C189.402 14.3562 189.446 14.2242 189.776 13.1022C189.82 12.7062 189.952 11.8042 189.996 11.3202C190.018 11.0342 190.216 9.78018 190.216 9.51618C190.216 9.29618 190.282 8.37218 190.282 8.19618C190.282 8.06418 190.26 7.47018 190.26 7.36018C190.26 7.27218 190.172 6.81018 190.172 6.70018C190.172 5.73218 189.886 4.34618 188.984 3.86218ZM197.542 8.35018L197.564 10.8362C197.564 11.2762 197.652 13.4322 197.652 13.6082C197.652 13.6742 197.608 13.9162 197.608 13.9602C197.608 14.0922 197.696 14.6862 197.696 14.7302C197.696 15.9182 197.344 17.2602 196.948 17.2602C196.332 17.2602 195.76 15.6322 195.76 15.1922C195.76 15.1042 195.958 13.7842 196.002 13.6082C196.002 13.5422 196.046 12.3542 196.046 12.2222L196.09 10.0222C196.068 9.89018 196.046 9.71418 196.046 9.62618C196.068 9.40618 196.134 8.46018 196.134 8.26218C196.134 4.83018 195.848 4.52218 195.078 3.66418C195.078 3.57618 195.078 3.51018 195.144 3.35618C195.408 3.26818 195.606 3.22418 195.804 3.22418C195.98 3.22418 195.98 3.22418 196.244 3.42218C196.486 3.62018 197.74 4.25818 197.916 4.47818C197.96 4.54418 197.982 4.67618 197.982 4.76418C197.982 4.91818 197.784 5.53418 197.762 5.73218C197.564 7.03018 197.564 7.18418 197.564 7.42618C197.564 7.58018 197.542 8.21818 197.542 8.35018ZM204.032 6.63418L204.01 9.36218C204.01 9.82418 204.032 11.9362 204.032 12.3762C204.032 12.6182 204.23 15.2582 204.23 15.4122L204.406 18.0082C204.406 18.1402 204.032 19.5262 203.548 20.0102C203.196 19.9882 203.152 19.9442 202.778 19.4382C202.734 19.3942 202.36 18.1402 202.36 18.0742C202.36 17.3482 202.36 16.4022 202.47 15.6762C202.492 15.5882 202.558 15.1922 202.558 14.8842C202.558 14.4002 202.602 12.2662 202.58 11.8482C202.558 11.7162 202.514 9.95618 202.514 9.89018C202.514 9.69218 202.558 8.83418 202.558 8.68018V7.55818L202.404 5.64418C202.316 4.50018 202.294 3.97218 201.92 3.18018C201.81 2.96018 201.766 2.91618 201.37 2.52018C201.326 2.47618 201.326 2.45418 201.348 2.27818C201.524 2.14618 202.272 2.03618 202.316 2.03618C202.646 2.03618 202.8 2.16818 203.152 2.43218C203.372 2.60818 204.34 3.26818 204.516 3.44418C204.56 3.46618 204.714 3.66418 204.714 3.81818C204.714 3.88418 204.494 4.12618 204.472 4.19218C204.318 4.56618 204.032 6.01818 204.032 6.63418ZM219.014 15.2582L220.928 14.9502C221.808 14.8182 222.16 14.7742 222.556 14.7522C222.688 14.7522 225.944 14.3562 226.296 14.3122C226.208 13.1242 226.186 12.9922 226.054 12.7282C225.9 12.4422 225.636 12.0022 225.416 12.0022C225.306 12.0022 224.8 12.1562 224.712 12.1782C223.678 12.3542 223.568 12.3762 223.48 12.5302C223.392 12.7062 223.304 12.9702 223.216 13.2122C222.93 13.1902 222.71 12.9702 222.534 12.7282C222.446 12.5962 221.764 11.2762 221.764 11.1002C221.764 10.9462 221.808 10.8582 221.874 10.7262C221.874 10.3742 222.116 8.79018 222.16 8.48218C222.226 7.84418 222.314 7.03018 222.314 6.72218C222.314 6.37018 222.182 5.86418 222.05 5.51218L221.984 5.46818C221.698 5.68818 221.478 5.84218 221.346 5.99618C221.192 6.08418 220.686 6.67818 220.554 6.74418C220.444 6.81018 219.63 7.38218 219.542 7.44818C219.344 7.47018 219.256 7.49218 219.036 7.62418L218.86 7.58018L218.816 7.31618C219.08 6.96418 220.422 5.51218 220.62 5.18218C220.796 4.91818 221.016 4.56618 221.126 4.43418C221.236 4.32418 221.83 3.31218 221.962 3.09218C222.072 2.78418 222.556 1.59618 222.556 1.53018C222.556 1.42018 222.402 0.914179 222.402 0.826179C222.666 0.782179 223.216 0.848178 223.568 1.09018C223.634 1.11218 223.92 1.15618 223.986 1.17818C224.756 1.59618 225.328 1.88218 225.328 2.25618C225.328 2.36618 225.196 2.45418 224.976 2.63018C224.866 2.69618 224.316 2.91618 224.228 2.96018C224.096 3.26818 224.03 3.33418 223.81 3.48818C223.766 3.55418 223.59 3.70818 223.348 4.10418C223.436 4.21418 223.502 4.28018 223.766 4.28018C223.942 4.28018 225.812 4.21418 226.076 4.03818C226.45 3.79618 227.726 1.99218 227.726 1.00218C227.726 0.914179 227.682 0.826179 227.638 0.716179C227.66 0.672179 227.748 0.606179 227.792 0.606179C228.54 0.606179 229.662 1.50818 229.706 1.57418C229.926 1.94818 229.926 2.12418 229.926 2.34418C229.706 2.36618 229.684 2.38818 229.552 2.52018C229.464 2.60818 229.046 2.82818 228.958 2.87218C228.628 3.07018 228.342 3.37818 228.188 3.73018C228.826 3.68618 229.442 3.57618 229.97 3.26818C230.344 3.04818 231.004 2.85018 231.224 2.85018C232.06 2.85018 232.456 3.15818 232.742 3.40018C232.72 3.62018 232.412 3.92818 232.346 3.99418C232.082 4.06018 230.432 4.19218 230.014 4.23618C229.288 4.30218 229.222 4.32418 228.606 4.50018C228.716 4.67618 228.738 4.72018 228.76 4.89618C228.65 5.35818 228.65 5.42418 228.65 5.86418C228.958 5.82018 229.75 5.71018 229.882 5.68818C229.948 5.64418 230.542 5.42418 230.784 5.42418C231.334 5.42418 231.554 5.42418 231.972 5.68818C232.06 6.10618 231.928 6.12818 231.334 6.23818C231.268 6.23818 230.982 6.37018 230.916 6.37018C230.564 6.39218 228.98 6.52418 228.65 6.56818C228.606 6.83218 228.65 8.02018 228.65 8.26218C228.892 8.24018 229.662 8.02018 230.08 7.91018C230.124 7.88818 230.718 7.84418 230.828 7.82218L231.18 7.77818C231.29 7.80018 231.796 7.86618 231.884 7.91018C231.95 7.93218 232.192 8.02018 232.192 8.19618C232.192 8.26218 232.192 8.57018 232.082 8.63618C232.038 8.65818 230.674 8.92218 230.498 8.94418C229.794 8.94418 229.288 8.94418 228.65 9.05418C228.65 9.42818 228.628 9.91218 228.584 10.2642C228.562 10.3742 228.474 10.7702 228.474 10.8582L228.584 10.8802C229.024 10.8582 229.816 10.8142 230.432 10.7262C230.74 10.6822 232.28 10.4182 232.368 10.4182C232.874 10.4182 233.226 10.7042 233.424 10.8582C233.468 10.9462 233.82 11.2542 233.82 11.3422C233.82 11.5622 233.49 11.8042 233.094 11.8042C232.962 11.8042 232.346 11.7162 232.236 11.6942C231.84 11.6942 230.124 11.5402 229.772 11.5402C229.618 11.5402 228.958 11.5182 228.716 11.5402C228.584 11.5622 227.858 11.7162 227.726 11.7382C227.594 11.7602 227 11.8262 226.89 11.8482L227.022 12.0022C227.066 12.0242 227.88 12.3322 227.924 12.3542C228.034 12.4862 228.144 12.5742 228.32 12.7062C228.342 12.7282 228.386 12.8382 228.408 12.8602C228.32 13.1242 228.122 13.8722 228.122 14.1362C228.276 14.1362 229.398 14.0922 229.486 14.0922C230.432 14.0922 230.542 14.0922 231.224 13.9602C231.334 13.9382 232.434 13.8502 232.588 13.8502C232.764 13.8502 233.71 13.8502 233.974 13.8062C234.018 13.7842 234.216 13.6082 234.26 13.5862C234.37 13.5862 235.36 13.7402 235.382 13.7622C235.646 13.8722 236.306 14.1802 236.746 14.6422C236.812 15.1482 236.306 15.3902 236.02 15.3902C235.976 15.3902 235.866 15.3902 235.778 15.3682C235.734 15.3902 235.646 15.4122 235.58 15.4122C235.448 15.4122 234.854 15.2362 234.722 15.2142C234.326 15.1482 232.456 14.7522 232.258 14.7522C232.126 14.7522 231.576 14.6862 231.444 14.6862C231.334 14.6862 231.026 14.7302 230.96 14.7302L229.2 14.8622C229.024 14.8842 228.254 14.9062 228.1 14.9062C228.1 15.1482 228.056 16.1382 228.056 16.3362C228.056 16.4022 228.122 17.0622 228.122 17.2162V18.2282C228.078 18.6022 227.968 19.4162 227.88 20.0102C227.88 21.1102 227.704 21.1542 227.11 21.2642C227.088 21.1982 226.802 20.7142 226.802 20.6482C226.648 20.2082 226.472 19.3942 226.472 19.3502C226.472 18.7782 226.472 15.5662 226.362 15.1042C226.076 15.1262 224.8 15.2362 224.558 15.2802C224.492 15.3022 224.14 15.3902 224.074 15.4122C223.986 15.4122 223.502 15.4342 223.392 15.4562C223.282 15.4782 222.666 15.6542 222.534 15.6542C221.83 15.7202 221.632 15.7862 220.972 16.0282C220.928 16.0502 220.598 16.1162 220.532 16.1382C220.334 16.2042 219.52 16.6002 219.322 16.6002C219.256 16.6002 218.046 16.2042 217.958 16.1822C217.694 16.0942 217.386 16.0062 216.748 15.4562V15.3682C217.1 15.3022 218.684 15.3022 219.014 15.2582ZM223.436 9.49418L223.37 9.53818C223.37 9.67018 223.304 10.2862 223.304 10.3962V11.4082C223.282 11.4742 223.282 11.7162 223.502 11.7162C223.59 11.7162 223.854 11.6062 223.92 11.6062C224.47 11.6062 224.602 11.5842 225.79 11.3422C225.966 11.2982 226.824 11.1882 227 11.1662C227 11.0122 226.868 10.1322 226.868 10.0882C226.868 10.0222 226.934 9.29618 226.956 9.20818C226.714 9.25218 225.636 9.40618 225.416 9.47218C225.13 9.53818 224.184 9.75818 224.008 9.75818C223.766 9.75818 223.656 9.67018 223.436 9.49418ZM226.978 8.54818C226.978 8.13018 227 7.27218 227 6.87618C226.846 6.89818 224.514 7.33818 224.426 7.33818C224.294 7.33818 223.7 7.20618 223.568 7.20618C223.502 7.31618 223.458 7.40418 223.458 7.58018C223.458 7.66818 223.48 8.06418 223.48 8.15218C223.48 8.24018 223.414 8.65818 223.414 8.74618C223.414 8.83418 223.436 8.98818 223.458 9.03218C223.524 9.07618 223.568 9.09818 223.722 9.09818C224.052 9.09818 225.504 8.83418 225.79 8.81218C225.856 8.81218 226.78 8.59218 226.978 8.54818ZM226.89 4.98418L226.714 4.85218C226.67 4.80818 226.56 4.65418 226.494 4.65418C226.428 4.65418 225.768 4.74218 225.636 4.74218C225.504 4.76418 224.844 4.85218 224.778 4.85218C224.668 4.85218 224.294 4.69818 224.206 4.67618C223.986 4.65418 223.282 4.47818 223.106 4.41218C223.018 4.50018 222.996 4.54418 222.908 4.63218C223.392 5.16018 223.436 5.20418 223.436 5.66618C223.436 6.01818 223.436 6.50218 223.524 6.61218C223.788 6.70018 226.78 6.15018 226.956 6.10618C226.934 5.93018 226.912 5.13818 226.89 4.98418Z" fill="black"/>
</svg>
