<svg width="18" height="18" viewBox="0 0 18 18" fill="none" xmlns="http://www.w3.org/2000/svg">
<path d="M5.14345 12.8596C13.2803 21.2268 17.0741 16.8621 17.0741 16.8621C17.0741 16.8621 18.094 15.9261 17.993 15.2168C17.9215 14.7463 17.2145 14.1305 16.5691 13.4926C15.9655 12.8916 15.4211 12.3054 14.9924 12.1797C14.0563 11.9113 13.167 13.2413 13.167 13.2413C11.5017 15.2439 7.17335 10.83 7.17335 10.83C7.17335 10.83 2.75387 6.49979 4.76407 4.82979C4.76407 4.82979 6.09189 3.9406 5.81844 3.01201C5.6928 2.58096 5.11388 2.03415 4.51033 1.42576C3.86983 0.787812 3.26135 0.0833596 2.78343 0.0070029C2.07641 -0.093985 1.14275 0.930673 1.14275 0.930673C1.14275 0.930673 -3.23485 4.71895 5.14591 12.8546V12.8596H5.14345Z" fill="black"/>
</svg>
