<svg width="33" height="31" viewBox="0 0 33 31" fill="none" xmlns="http://www.w3.org/2000/svg">
<path d="M31.7315 15.7211C31.7315 7.40649 24.824 0.666016 16.3033 0.666016C7.78254 0.666016 0.875 7.40649 0.875 15.7211C0.875 22.7814 5.85648 28.7058 12.5764 30.333V20.322H9.3951V15.7211H12.5764V13.7387C12.5764 8.61451 14.953 6.23941 20.1085 6.23941C21.086 6.23941 22.7726 6.4267 23.4626 6.61338V10.7836C23.0985 10.7463 22.4659 10.7276 21.6803 10.7276C19.1507 10.7276 18.1732 11.6629 18.1732 14.094V15.7211H23.2127L22.3468 20.322H18.1732V30.666C25.8126 29.7657 31.7321 23.4185 31.7321 15.7211H31.7315Z" fill="white"/>
</svg>
