<svg width="237" height="22" fill="none" xmlns="http://www.w3.org/2000/svg"><path d="M6.824 10.682l-.066 1.738c0 .286-.044 1.958-.044 2.266 0 .616.11 3.3.11 3.85 0 .836-.682 2.002-.968 2.002-.154 0-.462-.176-.616-.616-.022-.044-.352-.462-.396-.55-.022-.022-.44-.902-.572-1.012-.132-.11-.726-.484-.814-.594a.475.475 0 01-.132-.308.15.15 0 01.154-.154l.44.11c.264.066.484.11.704.11.594 0 .594-.198.616-.726l.066-1.672v-.836c-.242 0-2.024.55-2.068.66-.066.176-.22.99-.264 1.144-.044.132-.748 2.178-1.892 3.3-.55.55-.616.594-.902.594l-.022-.132c.022-.132.418-.792.594-1.144.044-.044.924-2.53 1.056-3.498.022-.132.33-1.672.374-1.826.066-.286.154-1.87.154-2.266 0-1.694.022-1.892-.22-2.222-.22-.308-.308-.396-.308-.55 0-.33.462-.462.528-.462s1.298.418 1.54.484c.484-.154.946-.418 1.364-.726.11-.198.242-.44.528-.44.396 0 1.694.616 1.694 1.012 0 .154-.374.792-.418.924-.11.264-.22.748-.22 1.21v.33zm-1.452.77l-.088-.132c-.308.066-.44.132-.77.308-.132.066-.704.132-.814.198 0 .11-.176 1.452-.11 1.892.022.022.176.044.264.022.176-.044 1.386-.462 1.43-.528.088-.088.11-1.254.088-1.76zm-1.562-.55c.132-.022.55-.242.682-.308.088-.044.704-.176.814-.242.022-.198-.066-1.144-.066-1.32 0-.396 0-.44-.11-.44-.066 0-1.298.352-1.298.792 0 .242-.066 1.298-.022 1.518zM1.302 4.214l.044-.088c.044.022.506.176.616.198.418.11.572.154.858.154.396 0 2.64-.352 2.772-.352-.352-1.056-.528-1.54-.88-1.914-.088-.088-.44-.55-.528-.616-.11-.088-.132-.11-.11-.264.088-.044.176-.088.286-.088.616 0 1.21.22 1.628.484.11.066.638.22.726.286.088.088.132.154.132.264 0 .044-.022.264-.022.308 0 .33.022 1.034.044 1.342.308.022.374.022.55 0l1.672-.132 1.694-.11c.066 0 .418-.022.506-.044.088-.264.286-1.562.286-1.672 0-.11-.044-.374-.11-.528-.022-.044-.11-.242-.11-.286 0-.044.044-.088.066-.132.198-.044.374-.088.528-.088.176 0 1.32.418 1.386.484.242.22.572.572.506.902-.638.418-.77.506-1.012 1.166.572-.044.638-.066.704-.088.374-.22.418-.242.506-.242.132 0 .792-.088.836-.088.198 0 1.056.176 1.43.374.176.11.308.242.308.572 0 .132-.022.242-.044.374l-.33.11-2.288-.11c-.198 0-.99.022-1.562.044-.11.198-.682 1.012-.682 1.188 0 .11.528.198.616.242.132.088.726.55.726.814 0 .154-.33.792-.352.924-.044.264-.198 1.474-.242 1.716.616-.066.682-.11.968-.308.198-.132 1.034-.22 1.1-.22.858 0 1.012.374 1.122.704-.198.154-1.364.418-1.584.462-.088.022-.484.066-.572.088.154.352.55.748.902 1.122.242-.022 1.386-.308 1.54-.308.176 0 1.672.044 1.672.726 0 .418-.352.506-.616.506-.198 0-1.056-.044-1.232-.044h-.418c.154.154.924.638 1.078.748l1.408.99c.154.11 1.056.704 1.1.77.044.066.286.396.308.418a.166.166 0 01.022.088c0 .308-.572.352-.792.352a44.45 44.45 0 01-1.584-.11c-.572-.066-1.32-.924-1.452-1.1-.484-.55-1.188-1.496-1.65-2.068-.132 0-.66.066-.77.066-.066 0-.418-.022-.506-.022-.176 0-.858.132-1.012.154-.11.176-.154.264-.308.572.418.022 2.068.33 2.068 1.122-.176.616-.198.77-.176 1.826l.044 1.892c.022.66-.044 1.496-.264 1.958-.242.55-.55 1.166-1.122 1.078-.154-.22-.44-.638-.66-.836-.198-.176-.22-.198-.33-.418-.198-.11-.286-.154-.22-.528l.132-.066c.308.022.726-.088.946-.308.022-.33.11-1.43.11-1.694 0-.132-.044-.704-.044-.836 0-.352-.132-1.826-.308-2.178-.044-.088-.352-.374-.418-.44-.242.308-.66.858-.748.924-.264.22-.704.594-.792.682.726.198 1.188.308 1.298.506.308.528.462.792.462 1.012 0 .242-.132.286-.462.286-.044 0-1.606-.682-2.178-1.188-.154.022-.176.044-.462.242-.11.066-.792.22-.99.198a.518.518 0 01-.044-.176c0-.132 1.166-1.276 1.32-1.43.33-.308.638-.682.924-1.012.088-.132.506-.748.594-.858a4.7 4.7 0 00-.748.154c-.418.132-.682.22-1.1.22-.264 0-.682-.176-.946-.506l.044-.088c.066-.022 1.518-.242 1.65-.242.11-.066.704-.154.814-.176.132-.044.506-.132.616-.198.088-.176.462-1.122.484-1.364-.242.022-1.32.242-1.54.242-.418 0-.528-.066-.858-.264-.044-.044-.308-.154-.418-.198-.044-.022-.044-.088-.044-.176.286-.044 1.606-.198 1.87-.242.44-.066.792-.11 1.144-.198l.044-.176.264-1.848c.022-.198 0-.924-.022-1.122-.022-.198-.154-.308-.396-.308-.066 0-.22 0-.22-.11 0-.044.528-1.474.594-1.628-1.144 0-1.276.022-2.486.198-.264.044-1.43.132-1.672.176.022.572.022.748-.066.924-.044.088-.198.352-.308.352-.176 0-.264-.22-.638-1.034-.242.022-1.43.264-1.716.33-.198.066-1.254.44-1.32.44-.33 0-1.012-.858-1.584-1.606zm11.154 6.006l-.198.044c-.066.22-.44 1.122-.506 1.298 1.32-.154 1.452-.176 1.562-.198-.154-.154-.726-.99-.858-1.144zm-1.452 7.26c-.242.352-1.958 2.178-2.002 2.222-.044 0-.066.022-.088.022-.154 0-.594-.616-.704-.704-.11-.11-.11-.506-.11-.682 0-.176.11-.242.22-.242.022 0 .33.022.374.022.22-.066 1.76-.572 2.046-.704.044-.022.11-.022.132-.022.044 0 .088.044.132.088zM8.738 6.92c.154 0 1.782.858 1.782 1.54 0 .572 0 .968-.484.968-.242 0-.286-.066-.682-.66-.506-.77-.836-1.298-.836-1.672 0-.132.11-.176.22-.176zm4.268 1.298c.572-.616.924-.99 1.034-1.232.044-.088.132-.55.154-.638.11-.022.176-.044.242-.044.198 0 1.21.484 1.32.528.22.154.242.462.242.638 0 .286-.088.308-.99.484-.396.088-.462.132-1.056.418-.066.022-.484.22-.792.22-.132 0-.242-.044-.242-.132 0-.044.044-.154.088-.242zm2.728 11l-1.386-.946c-.066-.022-.638-.55-.726-.638-.198-.176-.22-.198-.198-.33.176-.044.264-.044.374-.044.22 0 1.012.132 1.32.286.066.022.462.066.528.088.154.066.638.352.726.638.088.264.198.572.198.814s-.242.374-.374.374c-.11 0-.154-.022-.462-.242zm-1.386-4.202l-.154-.176c.088-.154.55-.286.77-.286.11 0 .572.176.682.176.22.044.308.198.374.308l.066.352c-.11.264-.176.352-.528.396-.22.044-1.056.418-1.254.484-.088.022-.594.11-.704.132a.328.328 0 01-.066-.176c0-.022.726-.99.814-1.21zm18.04.286l-.022.484.11.022 1.914-.066c.088-.022.792-.066.924-.066.33 0 .704 0 .902-.066.11-.286.528-1.584.594-1.848l1.166-4.29c.066-.286.352-1.54.396-1.738.264-1.232.264-1.452.242-1.958a6.176 6.176 0 00-.946-.066c-.22 0-1.21.088-1.408.088h-.396l-2.464.264c-.11 0-.638.022-.748.044-.176.022-.33.066-.528.132.396.308.968.77.968 1.012 0 .044-.264.946-.308 1.056-.022.308-.044 1.1-.044 1.276.088.022.154.044.22.044.264 0 .858-.176 1.1-.286.154-.066.264-.176.396-.176.66 0 2.772 0 2.772.814 0 .374-.726.484-1.408.572-.264.044-2.904.308-3.058.462-.11.11-.198 1.694-.198 1.98-.022.352-.242 1.98-.176 2.31zm-2.354-8.8l-2.42.374c-.242.044-1.518.264-1.848.374-.022.11.374 3.08.462 3.322.11 0 .638.066.748.066.748 0 1.452-.154 3.168-.462.242-.044.352-.066.352-.264 0-.924-.022-1.628-.088-2.288-.088-.924-.264-1.144-.374-1.122zm-2.838 9.724l3.168-.33h.154c0-.066.022-.198.022-.264 0-.088-.044-.352-.044-.418 0-.11.066-1.056.066-1.21 0-.198-.066-2.464-.11-2.728-.066-.044-.088-.066-.132-.066-.044 0-.066 0-.308.066-.352.088-2.398.352-2.706.352-.154 0-.792-.154-.924-.176-.066.154.792 4.686.814 4.774zm.506-10.428l2.794-.418.264-.044 1.936-.198c.308-.022.924-.088 1.232-.11.132 0 .638-.088.726-.11l2.684-.286c.242-.022.748-.132.99-.198.154-.044.726-.396.836-.462.286.088.528.352.924.814.176.198.968 1.034 1.122 1.21.11.132.66.814.66.902 0 .154-.066.22-.682.638-.176.132-.418.858-.484 1.056-.066.264-.55 1.364-.638 1.606l-.792 2.42-.748 2.134c-.594 1.672-.726 2.134-1.43 2.53-.242-.066-1.43-.44-1.474-.44-.198 0-.528-.066-.748-.11-.352-.066-1.232-.066-1.628-.066-1.232 0-4.444.286-4.73.33-.88.176-.99.176-1.276.462-.242.616-.748.902-.836.902-.264 0-.99-1.21-1.078-2.046-.11-.946-.506-3.3-.682-4.334l-.352-2.156c-.044-.264-.11-.66-.176-.924l-.44-1.76c-.132-.528-.462-1.144-.616-1.32-.308-.374-.55-.792-.55-.902 0-.176.242-.242.396-.242.22 0 1.056.55 1.232.638.528.242.682.374.902.66.154.022.264.044.418.044.242 0 1.936-.176 2.244-.22zm35.816-2.552l1.87-.154c.154-.022.836-.066.99-.066a5.93 5.93 0 01.616-.088c1.012 0 1.21-.242 1.474-.594.33-.022.814.396 1.056.638.11.11.572.594.682.682.132.11.836.682.836 1.034 0 .088 0 .132-.154.396-.198.044-1.1.066-1.276.11-.198.044-.99.506-1.166.572-.22.088-.528.198-.792.198-.22 0-.44-.11-.44-.286 0-.132.374-.616.528-.814.044-.132.242-.726.264-.902-.154-.066-1.166-.198-1.254-.198-.22 0-1.408 0-1.848.044-.286.022-.308.022-.374.11l.286.308.33.286.264.374c.022.044.088.176.088.242 0 .044-.044.088-.242.484.352.022 1.606.154 1.606.682 0 .198-.198.374-.374.374-.66 0-1.452.022-1.936.044-.374.682-.44.814-.506.99l.154.044c.154-.022.396-.044.462-.044.088 0 .814.374.946.44.572.33.902.528.902.748 0 .088-.22.484-.242.572-.044.11-.154.55-.22.77l-.022 1.32c0 .066.066 1.364.066 1.606 0 1.408-.616 2.662-1.122 2.662-.264 0-.528-.396-.638-.616-.044-.088-.132-.572-.176-.682l-.77-.088c.308.506.352.55.352.66 0 .044-.242.638-.264.704-.066.154-.286 1.76-.286 2.2 0 .748.484.99.924 1.166.528.198 1.694.396 1.914.374l1.848-.176c.374-.044.924-.286 1.188-.616.044-.242.088-.484.088-.682 0-.11-.044-.55-.044-.66-.022-.176-.132-.858-.132-.968 0-.088.022-.22.044-.286.462-.044.858.836 1.166 1.518.462 1.012.484 1.056 1.144 1.386.11.22.154.264.286.396.044.264.022.352-.264.682-.11.022-.462.264-.55.286-.088 0-1.518.352-1.54.352l-1.848.066c-1.012.044-3.718-.396-4.51-1.034-.704-.594-.88-1.958-.88-2.794 0-1.628 0-1.804-.176-2.156-.11-.176-.22-.308-.352-.308-.132 0-1.078.198-1.408.352.132.242 1.034 1.188 1.034 1.452 0 .352-.132.44-.484.616-.088.066-1.804 1.914-2.2 2.178-.88.616-1.188.814-2.53 1.254-.44.132-.968.308-1.584.308-.132 0-.22-.11-.22-.198 0-.198 1.188-.638 1.386-.792.77-.528 1.848-1.276 2.486-2.024.286-.33 1.056-1.386 1.056-1.716 0-.154 0-.396-.176-.396-.088 0-.132 0-.44.154-.33-.33-.792-1.144-.792-1.826 0-.088.176-.506.176-.616.088-.616.088-.704.088-1.1 0-.264-.066-1.386-.066-1.628 0-.704-.088-1.078-.264-1.496-.044-.132-.242-.44-.242-.528 0-.088.154-.176.264-.176.066 0 .66.396.99.66.33-.088.506-.132.902-.308-.11-.352-.418-1.188-.528-1.364-.154.022-.748.242-.88.242-.396 0-.528-.066-.88-.286-.088-.066-.594-.242-.638-.33-.044-.044-.044-.088-.044-.11 0-.176.154-.198.22-.198.11 0 .594.066.704.066.33 0 .836-.11 1.166-.242-.11-.484-.506-1.298-.704-1.452a1.614 1.614 0 00-.44-.11c-.088 0-.484.088-.572.088-.066 0-.396-.11-.462-.11-.352 0-.374.11-.484.946-.22 1.518-1.188 2.706-1.474 2.706a.547.547 0 01-.528-.506c-.022-.132-.176-.792-.176-.924 0-.792 0-.88.264-1.188.528-.594.594-.66.726-.902.132-.154.462-.748.55-1.034.088-.22.088-.264.198-.374.066-.088.154-.22.176-.242.308-.088.33-.022.484.77a.825.825 0 00.22.022c.088 0 .396-.066.462-.066.176 0 .88-.176 1.034-.176.132 0 1.144-.132 1.364-.176.132-.022 1.54-.132 1.826-.198.044-.264.11-.484.11-.748 0-.44-.176-.836-.44-1.144-.11-.132-.814-.638-.902-.792.11-.198.198-.33.66-.33.924 0 1.452.044 2.684.77.286.176.572.352.572.748 0 .11-.374.484-.418.572-.154.22-.264.396-.264.55 0 .044.044.044.088.044h.374zm-2.684 2.926l2.068-.242c.264-.022.33-.044.33-.77 0-.396-.22-1.1-.44-1.1-.088 0-.44.044-.704.044-.198 0-2.486.352-2.706.352-.242 0-.374 0-.528.066.396.132 1.54 1.012 1.628 1.276 0 .066.044.374.11.374.044.022.176 0 .242 0zm-1.694 7.766l.088.132c.264.044.352.044.748-.044.088-.022.924-.11 1.012-.11l2.178-.176c.044 0 1.034-.11 1.078-.154.044-.044.044-.176.044-.286 0-.198.044-1.144.044-1.298 0-.066-.088-.77-.088-.858 0-2.464-.374-2.508-1.122-2.508-.11 0-.506 0-1.1.154l-1.716.462-1.144.33c-.022.22-.022.286.044.77.154 0 1.782-.264 2.266-.462.176-.088.792-.286 1.122-.286.44 0 .836.066 1.056.44-.044.066-.33.396-.374.418-.198.044-1.452.286-1.694.308-.836.066-.858.066-1.518.264-.132.044-.814.066-.858.198-.022.044-.088.33-.088.704v.396c.418-.044 2.024-.374 2.442-.484.11-.044.616-.33.748-.33.858 0 1.408 0 1.408.462 0 .286-.264.33-.66.396-.044 0-.22.088-.264.088-.374.044-1.936.198-2.244.264a69.4 69.4 0 00-1.408.33 5.867 5.867 0 000 .88zm3.542-5.896c.066-.22.22-1.056.264-1.254a1.486 1.486 0 01-.308.044c-.748 0-2.024.132-2.046.242v.066c0 .066.044 1.276.154 1.276.242 0 1.628-.308 1.936-.374zm20.636-.836l.022-.814-.088-1.628c-.088-.616-.22-1.54-1.012-2.2-.22-.176-.242-.286-.242-.396 0-.33.264-.352 1.056-.352.55 0 1.034.264 1.672.616 1.034.572 1.144.638 1.144.946 0 .088-.022.132-.22.462-.33.506-.462 2.31-.462 2.86 1.452-.418 1.804-.682 2.244-1.364a.79.79 0 01.242-.044c.264 0 .44.154.748.418.066.044 1.584.99 1.804 1.254.308.374.352.44.352.594 0 .264-.198.506-.286.528-.88.198-1.364.308-2.002.858-.088.088-.484.462-.55.528l-1.518 1.166c-.814.616-4.62 3.014-4.972 3.212-.044.044-.088.066-.088.11 0 .11.132.132.176.154.748.176 3.41 1.078 4.136 1.364.99.418 1.1.44 2.222.814l1.782.594c.77.264 1.54.462 2.332.638.088.044.616.11.726.132.374.11 2.288.572 2.464.66.066.044.132.088.22.132l.022.396c-.176.11-2.398.88-3.432.88-.264-.132-.33-.176-.88-.308-1.1-.286-4.532-1.914-4.84-2.09-1.166-.682-2.706-1.386-2.948-1.496-1.474-.616-2.112-.924-3.322-.924-.352.066-.924.154-1.342.242-.242.088-.858.352-1.144.55-.726.506-.814.55-.99.55-.506 0-.528-.572-.528-.616 0-.22.22-1.848.66-1.848.022 0 .044 0 .066.022.55.286.616.33.836.33 1.298 0 1.892-.33 2.86-.814.352-.176 4.092-3.212 6.006-5.962-.55.022-.572.044-1.232.264-.154.044-.836.198-.99.242-.572.198-1.584.528-1.716.55a.525.525 0 00-.198.044l-1.892.814c-.066.022-.286.198-.33.22a.574.574 0 01-.242.066c-.352 0-2.354-1.1-2.376-1.122-.11-.11-.088-.33-.066-.396.022-.022.176-.044.22-.044.066 0 1.034.088 1.232.088.682 0 3.212-.55 3.872-.704l.792-.176zm71.94-3.146l1.892-.176c.44-.044.968-.088 1.32-.242.022-.022.44-.352.506-.418.044 0 .132-.022.176-.022.066 0 .176.022.198.044.132.264 1.144 1.1 1.474 1.364.198.176.77.726.77 1.012 0 .286-.308.594-.572.594-.088 0-.44-.066-.528-.066-.484 0-.704.11-1.716.55-.132.088-.88.308-1.078.308-.066 0-.198-.022-.242-.022-.132.022-.33 0-.33-.198 0-.154 1.034-1.562 1.034-1.65 0-.374-.946-.572-1.012-.572-.924 0-1.452.022-2.134.044-.264.022-1.716.264-2.002.286-.242 0-2.376.132-2.64.176-.506.066-2.552.44-3.322.704-.066.044-.242.088-.396.088-.176 0-.968-.198-1.144-.198-.044.286-.198 1.518-.264 1.76-.198.726-1.232 2.53-1.672 2.53-.506 0-.748-.484-.748-.88 0-.198-.044-1.056-.044-1.232 0-.418.044-.506.198-.704.528-.22.968-1.518 1.034-1.738.308-.99.33-1.122.528-1.276.198 0 .242.044.528.484.286.462.308.506.484.506.154 0 .858-.11 1.012-.11h.506c.066 0 .638-.132.748-.132.264 0 1.452-.242 1.694-.286.286-.022 1.166-.11 1.43-.308.066-.506-.022-1.32-.242-1.914-.11-.264-1.1-1.254-1.1-1.32 0-.11.044-.132.33-.33 1.298-.11 1.804.154 2.508.506.242.11.66.33.836.44.044.066.286.396.286.55 0 .066-.44 1.144-.462 1.166-.022.264-.044.572-.044.616 0 .11.022.176.22.176s1.694-.088 1.98-.11zm2.86 8.36l-.88-.022c-.198 0-1.188-.286-1.386-.286-.154-.044-.968-.11-1.188-.11-.154 0-1.1 0-1.474.198-.066.044-.066.22-.088.352l-.044 1.76-.044 2.222c0 .286.088 1.54.088 1.804 0 1.254-.836 2.398-.99 2.618-.198.264-.396.418-.726.374-.088-.088-.264-.176-.506-.33-.044-.11-.594-1.298-.792-1.474-.462-.418-.924-.858-1.364-1.276-.066-.066-.352-.264-.396-.33-.022-.044-.044-.088-.044-.132.286.044.352.066.946.286a4.07 4.07 0 001.122.242c.11 0 .22-.022.44-.066.286-.396.462-1.43.462-1.628l.088-1.716c.044-.66-.044-2.2-.066-2.53-.836.11-2.31.44-3.014.726-.132.044-1.474.462-1.606.528-.242.132-.264.154-.44.154-.528 0-1.254-.528-1.496-.726-.088-.066-.506-.286-.572-.352-.11-.11-.088-.242-.066-.396.044-.022.132-.066.198-.066.022 0 .638.088.77.088 1.364 0 1.958-.132 3.564-.506.396-.088 2.222-.396 2.596-.506.022-.352-.176-1.386-.22-1.474-.396-.704-.946-1.1-1.122-1.1-1.012 0-1.1 0-1.562-.132-.176-.044-.99-.286-.99-.506 0-.044.044-.088.044-.11.198-.066.748-.11.858-.11.66 0 .748.022.968-.022.77-.11 2.486-.418 3.124-.594.154-.044.836-.198.968-.264.396-.176 1.1-.418 1.254-.418.374 0 1.1.22 1.32.374.176.132.198.264.154.484-.55.308-1.43.594-1.936.66-.22.022-1.078.132-1.254.176.066.264.11.352.352.616.066.066.132.154.132.22 0 .044-.088.264-.088.308-.022.11-.088.44-.11.528 0 .11.022 1.012.044 1.1.22.022 1.254-.088 1.452-.11.352-.022 1.914-.33 2.178-.33.088 0 1.21.22 1.298.264.088.066.814.506.858.638.022.066.066.242.066.33 0 .352-.594.572-.88.572zm16.676 2.882l-.022.484.11.022 1.914-.066c.088-.022.792-.066.924-.066.33 0 .704 0 .902-.066.11-.286.528-1.584.594-1.848l1.166-4.29c.066-.286.352-1.54.396-1.738.264-1.232.264-1.452.242-1.958a6.176 6.176 0 00-.946-.066c-.22 0-1.21.088-1.408.088h-.396l-2.464.264c-.11 0-.638.022-.748.044-.176.022-.33.066-.528.132.396.308.968.77.968 1.012 0 .044-.264.946-.308 1.056-.022.308-.044 1.1-.044 1.276.088.022.154.044.22.044.264 0 .858-.176 1.1-.286.154-.066.264-.176.396-.176.66 0 2.772 0 2.772.814 0 .374-.726.484-1.408.572-.264.044-2.904.308-3.058.462-.11.11-.198 1.694-.198 1.98-.022.352-.242 1.98-.176 2.31zm-2.354-8.8l-2.42.374c-.242.044-1.518.264-1.848.374-.022.11.374 3.08.462 3.322.11 0 .638.066.748.066.748 0 1.452-.154 3.168-.462.242-.044.352-.066.352-.264 0-.924-.022-1.628-.088-2.288-.088-.924-.264-1.144-.374-1.122zm-2.838 9.724l3.168-.33h.154c0-.066.022-.198.022-.264 0-.088-.044-.352-.044-.418 0-.11.066-1.056.066-1.21 0-.198-.066-2.464-.11-2.728-.066-.044-.088-.066-.132-.066-.044 0-.066 0-.308.066-.352.088-2.398.352-2.706.352-.154 0-.792-.154-.924-.176-.066.154.792 4.686.814 4.774zm.506-10.428l2.794-.418.264-.044 1.936-.198c.308-.022.924-.088 1.232-.11.132 0 .638-.088.726-.11l2.684-.286c.242-.022.748-.132.99-.198.154-.044.726-.396.836-.462.286.088.528.352.924.814.176.198.968 1.034 1.122 1.21.11.132.66.814.66.902 0 .154-.066.22-.682.638-.176.132-.418.858-.484 1.056-.066.264-.55 1.364-.638 1.606l-.792 2.42-.748 2.134c-.594 1.672-.726 2.134-1.43 2.53-.242-.066-1.43-.44-1.474-.44-.198 0-.528-.066-.748-.11-.352-.066-1.232-.066-1.628-.066-1.232 0-4.444.286-4.73.33-.88.176-.99.176-1.276.462-.242.616-.748.902-.836.902-.264 0-.99-1.21-1.078-2.046-.11-.946-.506-3.3-.682-4.334l-.352-2.156c-.044-.264-.11-.66-.176-.924l-.44-1.76c-.132-.528-.462-1.144-.616-1.32-.308-.374-.55-.792-.55-.902 0-.176.242-.242.396-.242.22 0 1.056.55 1.232.638.528.242.682.374.902.66.154.022.264.044.418.044.242 0 1.936-.176 2.244-.22zm18.876-1.936l.022-.154c.154-.11.264-.176.704-.176.198 0 .814.066.968.088.242.11.528.44.748.572.088.066.506.286.572.33.286.198.308.22.506.286.11.176.132.242.176.418-.264.396-.572 1.1-.572 1.628 0 .11-.066.572-.088.682 0 .308-.044 1.892-.066 2.2 0 .088-.11.528-.11.594-.044.198-.044 1.122-.066 1.298-.22 1.496-.528 2.97-.814 3.432-.11.946-2.112 4.158-2.904 4.158-.044 0-.066-.044-.11-.11.088-.22.77-1.98.836-2.2.066-.22.396-1.21.44-1.43.176-1.122.22-1.254.55-2.376.044-.396.176-1.298.22-1.782.022-.286.22-1.54.22-1.804 0-.22.066-1.144.066-1.32 0-.132-.022-.726-.022-.836 0-.088-.088-.55-.088-.66 0-.968-.286-2.354-1.188-2.838zm8.558 4.488l.022 2.486c0 .44.088 2.596.088 2.772 0 .066-.044.308-.044.352 0 .132.088.726.088.77 0 1.188-.352 2.53-.748 2.53-.616 0-1.188-1.628-1.188-2.068 0-.088.198-1.408.242-1.584 0-.066.044-1.254.044-1.386l.044-2.2a3.092 3.092 0 01-.044-.396c.022-.22.088-1.166.088-1.364 0-3.432-.286-3.74-1.056-4.598 0-.088 0-.154.066-.308.264-.088.462-.132.66-.132.176 0 .176 0 .44.198.242.198 1.496.836 1.672 1.056a.609.609 0 01.066.286c0 .154-.198.77-.22.968-.198 1.298-.198 1.452-.198 1.694 0 .154-.022.792-.022.924zm6.49-1.716l-.022 2.728c0 .462.022 2.574.022 3.014 0 .242.198 2.882.198 3.036l.176 2.596c0 .132-.374 1.518-.858 2.002-.352-.022-.396-.066-.77-.572-.044-.044-.418-1.298-.418-1.364 0-.726 0-1.672.11-2.398.022-.088.088-.484.088-.792 0-.484.044-2.618.022-3.036-.022-.132-.066-1.892-.066-1.958 0-.198.044-1.056.044-1.21V7.558l-.154-1.914c-.088-1.144-.11-1.672-.484-2.464-.11-.22-.154-.264-.55-.66-.044-.044-.044-.066-.022-.242.176-.132.924-.242.968-.242.33 0 .484.132.836.396.22.176 1.188.836 1.364 1.012.044.022.198.22.198.374 0 .066-.22.308-.242.374-.154.374-.44 1.826-.44 2.442zm14.982 8.624l1.914-.308c.88-.132 1.232-.176 1.628-.198.132 0 3.388-.396 3.74-.44-.088-1.188-.11-1.32-.242-1.584-.154-.286-.418-.726-.638-.726-.11 0-.616.154-.704.176-1.034.176-1.144.198-1.232.352-.088.176-.176.44-.264.682-.286-.022-.506-.242-.682-.484-.088-.132-.77-1.452-.77-1.628 0-.154.044-.242.11-.374 0-.352.242-1.936.286-2.244.066-.638.154-1.452.154-1.76 0-.352-.132-.858-.264-1.21l-.066-.044c-.286.22-.506.374-.638.528-.154.088-.66.682-.792.748-.11.066-.924.638-1.012.704-.198.022-.286.044-.506.176l-.176-.044-.044-.264c.264-.352 1.606-1.804 1.804-2.134.176-.264.396-.616.506-.748.11-.11.704-1.122.836-1.342.11-.308.594-1.496.594-1.562 0-.11-.154-.616-.154-.704.264-.044.814.022 1.166.264.066.022.352.066.418.088.77.418 1.342.704 1.342 1.078 0 .11-.132.198-.352.374-.11.066-.66.286-.748.33-.132.308-.198.374-.418.528-.044.066-.22.22-.462.616.088.11.154.176.418.176.176 0 2.046-.066 2.31-.242.374-.242 1.65-2.046 1.65-3.036 0-.088-.044-.176-.088-.286.022-.044.11-.11.154-.11.748 0 1.87.902 1.914.968.22.374.22.55.22.77-.22.022-.242.044-.374.176-.088.088-.506.308-.594.352-.33.198-.616.506-.77.858.638-.044 1.254-.154 1.782-.462.374-.22 1.034-.418 1.254-.418.836 0 1.232.308 1.518.55-.022.22-.33.528-.396.594-.264.066-1.914.198-2.332.242-.726.066-.792.088-1.408.264.11.176.132.22.154.396-.11.462-.11.528-.11.968.308-.044 1.1-.154 1.232-.176.066-.044.66-.264.902-.264.55 0 .77 0 1.188.264.088.418-.044.44-.638.55-.066 0-.352.132-.418.132a72.37 72.37 0 00-2.266.198c-.044.264 0 1.452 0 1.694.242-.022 1.012-.242 1.43-.352.044-.022.638-.066.748-.088l.352-.044c.11.022.616.088.704.132.066.022.308.11.308.286 0 .066 0 .374-.11.44a34.33 34.33 0 01-1.584.308c-.704 0-1.21 0-1.848.11 0 .374-.022.858-.066 1.21-.022.11-.11.506-.11.594l.11.022c.44-.022 1.232-.066 1.848-.154.308-.044 1.848-.308 1.936-.308.506 0 .858.286 1.056.44.044.088.396.396.396.484 0 .22-.33.462-.726.462-.132 0-.748-.088-.858-.11-.396 0-2.112-.154-2.464-.154-.154 0-.814-.022-1.056 0-.132.022-.858.176-.99.198-.132.022-.726.088-.836.11l.132.154c.044.022.858.33.902.352.11.132.22.22.396.352.022.022.066.132.088.154-.088.264-.286 1.012-.286 1.276.154 0 1.276-.044 1.364-.044.946 0 1.056 0 1.738-.132.11-.022 1.21-.11 1.364-.11.176 0 1.122 0 1.386-.044.044-.022.242-.198.286-.22.11 0 1.1.154 1.122.176.264.11.924.418 1.364.88.066.506-.44.748-.726.748-.044 0-.154 0-.242-.022a.525.525 0 01-.198.044c-.132 0-.726-.176-.858-.198-.396-.066-2.266-.462-2.464-.462-.132 0-.682-.066-.814-.066-.11 0-.418.044-.484.044l-1.76.132c-.176.022-.946.044-1.1.044 0 .242-.044 1.232-.044 1.43 0 .066.066.726.066.88v1.012a76.36 76.36 0 01-.242 1.782c0 1.1-.176 1.144-.77 1.254-.022-.066-.308-.55-.308-.616-.154-.44-.33-1.254-.33-1.298 0-.572 0-3.784-.11-4.246-.286.022-1.562.132-1.804.176-.066.022-.418.11-.484.132a7.58 7.58 0 00-.682.044c-.11.022-.726.198-.858.198-.704.066-.902.132-1.562.374-.044.022-.374.088-.44.11-.198.066-1.012.462-1.21.462-.066 0-1.276-.396-1.364-.418-.264-.088-.572-.176-1.21-.726v-.088c.352-.066 1.936-.066 2.266-.11zm4.422-5.764l-.066.044c0 .132-.066.748-.066.858v1.012c-.022.066-.022.308.198.308.088 0 .352-.11.418-.11.55 0 .682-.022 1.87-.264.176-.044 1.034-.154 1.21-.176 0-.154-.132-1.034-.132-1.078 0-.066.066-.792.088-.88-.242.044-1.32.198-1.54.264-.286.066-1.232.286-1.408.286-.242 0-.352-.088-.572-.264zm3.542-.946c0-.418.022-1.276.022-1.672-.154.022-2.486.462-2.574.462-.132 0-.726-.132-.858-.132a.63.63 0 00-.11.374c0 .088.022.484.022.572 0 .088-.066.506-.066.594 0 .088.022.242.044.286.066.044.11.066.264.066.33 0 1.782-.264 2.068-.286.066 0 .99-.22 1.188-.264zm-.088-3.564l-.176-.132c-.044-.044-.154-.198-.22-.198s-.726.088-.858.088c-.132.022-.792.11-.858.11-.11 0-.484-.154-.572-.176a8.047 8.047 0 01-1.1-.264c-.088.088-.11.132-.198.22.484.528.528.572.528 1.034 0 .352 0 .836.088.946.264.088 3.256-.462 3.432-.506-.022-.176-.044-.968-.066-1.122z" fill="black"/></svg>